<?xml version="1.0" encoding="iso-8859-1"?>
<!-- Generator: Adobe Illustrator 22.1.0, SVG Export Plug-In . SVG Version: 6.00 Build 0)  -->
<svg xmlns="http://www.w3.org/2000/svg" xmlns:xlink="http://www.w3.org/1999/xlink" version="1.1" id="Layer_1_1_" x="0px" y="0px" viewBox="0 0 64 64" style="enable-background:new 0 0 64 64;" xml:space="preserve" width="512" height="512">
<g>
	<g>
		<rect x="5" y="32" style="fill:#F0BC5E;" width="11" height="8"/>
	</g>
	<g>
		<g>
			<path style="fill:#F0BC5E;" d="M32,43c-5.514,0-10-4.486-10-10s4.486-10,10-10s10,4.486,10,10S37.514,43,32,43z"/>
		</g>
	</g>
	<g>
		<path d="M58,28h-8v-2h-2v2h-2.939c-1.788-4.654-5.984-8.109-11.061-8.84V2.131L20.697,11h-7.291L9,19.078V1H7v23h14.292    c-0.764,0.908-1.405,1.918-1.922,3H6c-2.757,0-5,2.243-5,5v20c0,2.757,2.243,5,5,5h7v4H9v2h28v-2h-4v-4h7c2.757,0,5-2.243,5-5    V38.166c0.022-0.055,0.04-0.111,0.061-0.166H48v2h2v-2h8c2.757,0,5-2.243,5-5S60.757,28,58,28z M32,19c-1.39,0-2.731,0.21-4,0.59    V8.535l4-2.667V19z M23.368,22H22v-9.465l4-2.667V20.37C25.061,20.818,24.178,21.363,23.368,22z M16,13h4v9h-4V13z M14,14.089V22    H9.685L14,14.089z M32,21c6.617,0,12,5.383,12,12s-5.383,12-12,12s-12-5.383-12-12S25.383,21,32,21z M31,61H15v-4h16V61z M40,55H6    c-1.654,0-3-1.346-3-3v-1h40v1C43,53.654,41.654,55,40,55z M43,49H3V32c0-1.654,1.346-3,3-3h12.59C18.21,30.269,18,31.61,18,33    c0,7.72,6.28,14,14,14c4.462,0,8.435-2.106,11-5.368V49z M45.668,36C45.88,35.032,46,34.03,46,33s-0.12-2.032-0.332-3H48v6H45.668    z M58,36h-8v-6h8c1.654,0,3,1.346,3,3S59.654,36,58,36z"/>
		<rect x="5" y="31" width="11" height="2"/>
		<rect x="5" y="35" width="11" height="2"/>
		<rect x="5" y="39" width="11" height="2"/>
	</g>
</g>
</svg>
