<?xml version="1.0" encoding="iso-8859-1"?>
<!-- Generator: Adobe Illustrator 22.1.0, SVG Export Plug-In . SVG Version: 6.00 Build 0)  -->
<svg xmlns="http://www.w3.org/2000/svg" xmlns:xlink="http://www.w3.org/1999/xlink" version="1.1" id="Layer_1_1_" x="0px" y="0px" viewBox="0 0 64 64" style="enable-background:new 0 0 64 64;" xml:space="preserve" width="512" height="512">
<g>
	<path d="M1,1v56h21.101v-2H3V11h58v44H41.899v2H63V1H1z M3,9V3h58v6H3z"/>
	<path style="fill:#F0BC5E;" d="M32,63.054l-0.316-0.105C20.509,59.224,13,48.807,13,37.026V25h1c6.233,0,12.412-2.06,17.4-5.8   l0.6-0.45l0.6,0.45C37.588,22.94,43.767,25,50,25h1v12.026c0,11.78-7.509,22.197-18.684,25.922L32,63.054z"/>
	<rect x="5" y="5" width="2" height="2"/>
	<rect x="9" y="5" width="2" height="2"/>
	<rect x="13" y="5" width="2" height="2"/>
	<path d="M47,28.873l-0.881-0.105c-4.796-0.576-9.496-2.227-13.591-4.774L32,23.664l-0.528,0.329   c-4.095,2.547-8.794,4.198-13.591,4.774L17,28.873v8.154c0,9.583,5.742,18.078,14.627,21.643L32,58.819l0.373-0.149   C41.258,55.104,47,46.609,47,37.026V28.873z M45,37.026c0,8.626-5.089,16.289-13,19.633c-7.911-3.345-13-11.007-13-19.633v-6.391   c4.574-0.669,9.039-2.256,13-4.622c3.961,2.366,8.426,3.953,13,4.622V37.026z"/>
	<path d="M27,35v3.184c-1.161,0.414-2,1.514-2,2.816v8c0,1.654,1.346,3,3,3h8c1.654,0,3-1.346,3-3v-8c0-1.302-0.839-2.402-2-2.816   V35c0-2.757-2.243-5-5-5S27,32.243,27,35z M37,49c0,0.551-0.449,1-1,1h-8c-0.551,0-1-0.449-1-1v-8c0-0.551,0.449-1,1-1h8   c0.551,0,1,0.449,1,1V49z M35,35v3h-6v-3c0-1.654,1.346-3,3-3S35,33.346,35,35z"/>
	<path d="M32,41c-1.654,0-3,1.346-3,3c0,1.302,0.839,2.402,2,2.816V49h2v-2.184c1.161-0.414,2-1.514,2-2.816   C35,42.346,33.654,41,32,41z M32,45c-0.551,0-1-0.449-1-1s0.449-1,1-1s1,0.449,1,1S32.551,45,32,45z"/>
	<rect x="5" y="13" width="28" height="2"/>
	<rect x="5" y="17" width="20" height="2"/>
	<rect x="5" y="21" width="12" height="2"/>
</g>
</svg>
