<?xml version="1.0" encoding="iso-8859-1"?>
<!-- Generator: Adobe Illustrator 22.1.0, SVG Export Plug-In . SVG Version: 6.00 Build 0)  -->
<svg xmlns="http://www.w3.org/2000/svg" xmlns:xlink="http://www.w3.org/1999/xlink" version="1.1" id="Layer_1_1_" x="0px" y="0px" viewBox="0 0 64 64" style="enable-background:new 0 0 64 64;" xml:space="preserve" width="512" height="512">
<g>
	<g>
		<rect x="25" y="25" style="fill:#F0BC5E;" width="34" height="14"/>
	</g>
	<g>
		<g>
			<path style="fill:#F0BC5E;" d="M14.721,43H9.279l-0.818-2.456l-2.315,1.158l-3.848-3.848l1.158-2.315L1,34.721v-5.441     l2.456-0.818l-1.158-2.315l3.848-3.848l2.315,1.158L9.279,21h5.441l0.818,2.456l2.315-1.158l3.848,3.848l-1.158,2.315L23,29.279     v5.441l-2.456,0.818l1.158,2.315l-3.848,3.848l-2.315-1.158L14.721,43z"/>
		</g>
	</g>
	<g>
		<path d="M17,32c0-2.757-2.243-5-5-5s-5,2.243-5,5s2.243,5,5,5S17,34.757,17,32z M9,32c0-1.654,1.346-3,3-3s3,1.346,3,3    s-1.346,3-3,3S9,33.654,9,32z"/>
		<path d="M63,21h-6V1H19.586L11,9.586V21h2V11h8V3h34v18H23v2h38v18H23v2h32v18H13V43h-2v20h46V43h6V21z M14.414,9L19,4.414V9    H14.414z"/>
		<rect x="25" y="25" width="2" height="6"/>
		<rect x="37" y="25" width="2" height="6"/>
		<rect x="41" y="25" width="2" height="6"/>
		<rect x="53" y="25" width="2" height="6"/>
		<rect x="57" y="25" width="2" height="6"/>
		<path d="M32,25c-1.654,0-3,1.346-3,3s1.346,3,3,3s3-1.346,3-3S33.654,25,32,25z M32,29c-0.552,0-1-0.449-1-1s0.448-1,1-1    s1,0.449,1,1S32.552,29,32,29z"/>
		<path d="M48,25c-1.654,0-3,1.346-3,3s1.346,3,3,3s3-1.346,3-3S49.654,25,48,25z M48,29c-0.552,0-1-0.449-1-1s0.448-1,1-1    s1,0.449,1,1S48.552,29,48,29z"/>
		<rect x="57" y="33" width="2" height="6"/>
		<rect x="45" y="33" width="2" height="6"/>
		<rect x="33" y="33" width="2" height="6"/>
		<rect x="29" y="33" width="2" height="6"/>
		<rect x="25" y="33" width="2" height="6"/>
		<path d="M49,36c0,1.654,1.346,3,3,3s3-1.346,3-3s-1.346-3-3-3S49,34.346,49,36z M53,36c0,0.551-0.448,1-1,1s-1-0.449-1-1    s0.448-1,1-1S53,35.449,53,36z"/>
		<path d="M40,39c1.654,0,3-1.346,3-3s-1.346-3-3-3s-3,1.346-3,3S38.346,39,40,39z M40,35c0.552,0,1,0.449,1,1s-0.448,1-1,1    s-1-0.449-1-1S39.448,35,40,35z"/>
		<rect x="51" y="5" width="2" height="2"/>
		<rect x="35" y="5" width="14" height="2"/>
		<rect x="23" y="9" width="30" height="2"/>
		<rect x="15" y="13" width="2" height="2"/>
		<rect x="19" y="13" width="34" height="2"/>
		<rect x="15" y="17" width="38" height="2"/>
		<rect x="15" y="45" width="2" height="2"/>
		<rect x="19" y="45" width="34" height="2"/>
		<rect x="27" y="49" width="26" height="2"/>
		<rect x="15" y="49" width="10" height="2"/>
		<rect x="15" y="53" width="38" height="2"/>
		<rect x="51" y="57" width="2" height="2"/>
		<rect x="15" y="57" width="34" height="2"/>
	</g>
</g>
</svg>
