<?xml version="1.0" encoding="iso-8859-1"?>
<!-- Generator: Adobe Illustrator 22.1.0, SVG Export Plug-In . SVG Version: 6.00 Build 0)  -->
<svg xmlns="http://www.w3.org/2000/svg" xmlns:xlink="http://www.w3.org/1999/xlink" version="1.1" id="Layer_1_1_" x="0px" y="0px" viewBox="0 0 64 64" style="enable-background:new 0 0 64 64;" xml:space="preserve" width="512" height="512">
<g>
	<g>
		<rect x="45" y="33" style="fill:#F0BC5E;" width="14" height="13"/>
	</g>
	<g>
		<rect x="5" y="33" style="fill:#F0BC5E;" width="14" height="13"/>
	</g>
	<path d="M58,17h-8.118c-0.149-1.339-0.455-2.629-0.882-3.863V13h-0.05C46.471,6.02,39.819,1,32,1c-9.249,0-16.883,7.013-17.882,16   H6c-2.757,0-5,2.243-5,5v30c0,2.757,2.243,5,5,5h13v4h-4v2h34v-2h-4v-4h13c2.757,0,5-2.243,5-5V22C63,19.243,60.757,17,58,17z    M32,3c4.199,0,8.014,1.639,10.871,4.294l-3.643,0.52c-1.183,0.169-2.208,0.908-2.741,1.976l-0.651,1.303   C35.556,11.652,34.994,12,34.368,12h-1.307c-0.754,0-1.408-0.511-1.591-1.243C31.064,9.134,29.612,8,27.938,8H26.32   c-0.514,0-1.004-0.245-1.312-0.656L23.57,5.427C26.021,3.898,28.905,3,32,3z M6,19h8c0,6.371,3.277,12.139,8.766,15.431   l1.028-1.715C18.914,29.789,16,24.662,16,19c0-1.694,0.27-3.326,0.76-4.86l2.777,0.463c0.968,0.162,1.748,0.917,1.94,1.879   C21.885,18.521,23.689,20,25.769,20h0.684c1.056,0,1.996,0.709,2.286,1.724l1.3,4.551l1.923-0.55l-1.3-4.55   C30.127,19.306,28.397,18,26.453,18h-0.684c-1.129,0-2.109-0.804-2.331-1.91c-0.354-1.772-1.789-3.162-3.572-3.459l-2.346-0.391   c1.034-2.205,2.544-4.141,4.415-5.66l1.473,1.964C24.091,9.456,25.18,10,26.32,10h1.618c0.754,0,1.408,0.511,1.591,1.243   C29.936,12.866,31.388,14,33.062,14h1.307c1.388,0,2.636-0.771,3.256-2.012l0.651-1.304c0.241-0.481,0.702-0.814,1.235-0.89   l5.017-0.717c0.94,1.184,1.717,2.501,2.294,3.923h-3.455c-1.191,0-2.296,0.592-2.957,1.583l-0.483,0.725   C39.637,15.741,39.154,16,38.633,16h-2.079C34.594,16,33,17.594,33,19.554c0,1.241,0.661,2.408,1.726,3.047l2.52,1.512   C37.711,24.393,38,24.903,38,25.446V29h2v-3.554c0-1.241-0.661-2.408-1.726-3.047l-2.52-1.512C35.289,20.607,35,20.097,35,19.554   C35,18.697,35.697,18,36.554,18h2.079c1.191,0,2.296-0.592,2.957-1.583l0.483-0.725C42.363,15.259,42.846,15,43.367,15h4.107   C47.805,16.281,48,17.617,48,19c0,5.662-2.914,10.789-7.794,13.716l1.028,1.715C46.723,31.139,50,25.371,50,19h8   c1.654,0,3,1.346,3,3v27H3V22C3,20.346,4.346,19,6,19z M43,61H21v-4h22V61z M58,55H6c-1.654,0-3-1.346-3-3v-1h58v1   C61,53.654,59.654,55,58,55z"/>
	<g>
		<rect x="5" y="45" width="14" height="2"/>
	</g>
	<g>
		<rect x="5" y="41" width="14" height="2"/>
	</g>
	<g>
		<rect x="5" y="37" width="14" height="2"/>
	</g>
	<g>
		<rect x="5" y="33" width="12" height="2"/>
	</g>
	<g>
		<rect x="45" y="45" width="14" height="2"/>
	</g>
	<g>
		<rect x="45" y="41" width="14" height="2"/>
	</g>
	<g>
		<rect x="45" y="37" width="14" height="2"/>
	</g>
	<g>
		<rect x="47" y="33" width="12" height="2"/>
	</g>
	<g>
		<path style="fill:#F0BC5E;" d="M34.721,47h-5.441l-0.818-2.456l-2.315,1.158l-3.848-3.848l1.158-2.315L21,38.721v-5.441    l2.456-0.818l-1.158-2.315l3.848-3.848l2.315,1.158L29.279,25h5.441l0.818,2.456l2.315-1.158l3.848,3.848l-1.158,2.315L43,33.279    v5.441l-2.456,0.818l1.158,2.315l-3.848,3.848l-2.315-1.158L34.721,47z"/>
	</g>
	<g>
		<path d="M32,41c-2.757,0-5-2.243-5-5s2.243-5,5-5s5,2.243,5,5S34.757,41,32,41z M32,33c-1.654,0-3,1.346-3,3s1.346,3,3,3    s3-1.346,3-3S33.654,33,32,33z"/>
	</g>
</g>
</svg>
