<?xml version="1.0" encoding="iso-8859-1"?>
<!-- Generator: Adobe Illustrator 22.1.0, SVG Export Plug-In . SVG Version: 6.00 Build 0)  -->
<svg xmlns="http://www.w3.org/2000/svg" xmlns:xlink="http://www.w3.org/1999/xlink" version="1.1" id="Layer_1_1_" x="0px" y="0px" viewBox="0 0 64 64" style="enable-background:new 0 0 64 64;" xml:space="preserve" width="512" height="512">
<g>
	<g>
		<path style="fill:#F0BC5E;" d="M14,44c0,0.406,0.034,0.803,0.061,1.203l3.097,1.859C18.183,47.676,19.354,48,20.548,48h0.449    c2.232,0,4.241-1.241,5.24-3.238c0.269-0.538,0.783-0.918,1.377-1.017l2.139-0.357C31.635,43.075,33,41.463,33,39.556    c0-0.495-0.093-0.979-0.277-1.442l-1.068-2.672C31.06,33.958,29.644,33,28.047,33h-2.892c-0.639,0-1.264-0.12-1.857-0.357    l-3.842-1.537C16.095,34.375,14,38.94,14,44z"/>
	</g>
	<g>
		<path style="fill:#F0BC5E;" d="M42.344,38.384C40.375,38.876,39,40.637,39,42.666v0.92c0,0.645-0.251,1.251-0.707,1.707    C37.459,46.127,37,47.235,37,48.414v0.759c0,1.479,0.734,2.852,1.966,3.673l0.598,0.398c0.408,0.272,0.72,0.656,0.901,1.111    l1.606,4.016l0.226,0.381C46.95,55.498,50,50.109,50,44c0-4.012-1.329-7.705-3.549-10.698l-0.309,0.184l-2.272,3.787    C43.538,37.825,43.011,38.216,42.344,38.384z"/>
	</g>
	<g>
		<path style="fill:#F0BC5E;" d="M31.469,46c-1.265,0-2.439,0.682-3.065,1.779l-2.543,4.45C25.589,52.705,25.079,53,24.531,53    h-1.177c-1.184,0-2.282,0.588-2.938,1.572l-1.249,1.873L19.11,56.55C22.38,59.908,26.943,62,32,62    c3.286,0,6.357-0.895,9.009-2.433l-0.302-0.274l-1.504-1.504c-0.452-0.452-1.02-0.773-1.641-0.929L36.16,56.51    C35.477,56.339,35,55.728,35,55.023v-5.492C35,47.584,33.416,46,31.469,46z"/>
	</g>
	<path d="M52.818,15.042C51.89,9.831,47.387,6,42,6c-1.887,0-3.683,0.482-5.274,1.353C34.152,3.411,29.75,1,25,1   c-7.041,0-12.976,5.299-13.869,12.198C7.063,14.061,4,17.678,4,22c0,4.962,4.038,9,9,9h5.182C14.979,34.402,13,38.97,13,44   c0,10.477,8.523,19,19,19s19-8.523,19-19c0-5.03-1.979-9.598-5.182-13H52c4.411,0,8-3.589,8-8   C60,18.865,56.847,15.453,52.818,15.042z M49,44c0,9.374-7.626,17-17,17s-17-7.626-17-17c0-7.26,4.583-13.453,11-15.886V38h2   V27.495C29.285,27.183,30.62,27,32,27s2.715,0.183,4,0.495v7.743l-3.232-3.878l-1.536,1.28L37,39.562l5.768-6.922l-1.536-1.28   L38,35.238v-7.124C44.417,30.547,49,36.74,49,44z M52,29h-8.381c-1.675-1.3-3.567-2.328-5.619-3.014V18h-2v7.432   C34.709,25.154,33.373,25,32,25c-1.375,0-2.709,0.164-4,0.445v-4.683l3.232,3.878l1.536-1.28L27,16.438l-5.768,6.922l1.536,1.28   L26,20.762v5.227C23.952,26.678,22.055,27.7,20.381,29H13c-3.86,0-7-3.14-7-7s3.14-7,7-7c1.23,0,2.441,0.324,3.5,0.936l1.001-1.731   c-1.314-0.76-2.81-1.165-4.334-1.194C14.121,7.314,19.115,3,25,3c4.078,0,7.837,2.089,10.043,5.478   c-0.678,0.557-1.299,1.197-1.843,1.921l1.6,1.201C36.518,9.312,39.142,8,42,8c4.305,0,7.919,2.99,8.794,7.101   C46.954,15.686,44,19,44,23h2c0-3.309,2.691-6,6-6s6,2.691,6,6S55.309,29,52,29z"/>
	<g>
		<rect x="6" y="36" width="2" height="2"/>
	</g>
	<g>
		<rect x="6" y="40" width="2" height="2"/>
	</g>
	<g>
		<rect x="6" y="44" width="2" height="2"/>
	</g>
	<g>
		<rect x="56" y="46" width="2" height="2"/>
	</g>
	<g>
		<rect x="56" y="42" width="2" height="2"/>
	</g>
	<g>
		<rect x="56" y="38" width="2" height="2"/>
	</g>
</g>
</svg>
