<?xml version="1.0" encoding="iso-8859-1"?>
<!-- Generator: Adobe Illustrator 22.1.0, SVG Export Plug-In . SVG Version: 6.00 Build 0)  -->
<svg xmlns="http://www.w3.org/2000/svg" xmlns:xlink="http://www.w3.org/1999/xlink" version="1.1" id="Layer_1_1_" x="0px" y="0px" viewBox="0 0 64 64" style="enable-background:new 0 0 64 64;" xml:space="preserve" width="512" height="512">
<g>
	<g>
		<path style="fill:#F0BC5E;" d="M32,24c-1.375,0-2.686,0.264-3.899,0.725l0.911,5.852l0.282,0.229C30.075,30.3,31.001,30,32,30    c0.979,0,1.885,0.292,2.656,0.778l0.332-0.202l0.911-5.852C34.686,24.264,33.375,24,32,24z"/>
	</g>
	<g>
		<path style="fill:#F0BC5E;" d="M21,35c0,1.375,0.264,2.686,0.725,3.899l5.852-0.911l0.229-0.282C27.3,36.925,27,35.999,27,35    c0-0.979,0.292-1.885,0.778-2.656l-0.202-0.332l-5.852-0.911C21.264,32.314,21,33.625,21,35z"/>
	</g>
	<g>
		<path style="fill:#F0BC5E;" d="M32,46c1.375,0,2.686-0.264,3.899-0.725l-0.911-5.852l-0.282-0.229C33.925,39.7,32.999,40,32,40    c-0.979,0-1.885-0.292-2.656-0.778l-0.332,0.202l-0.911,5.852C29.314,45.736,30.625,46,32,46z"/>
	</g>
	<g>
		<rect x="46" y="34" style="fill:#F0BC5E;" width="13" height="12"/>
	</g>
	<g>
		<rect x="5" y="34" style="fill:#F0BC5E;" width="13" height="12"/>
	</g>
	<g>
		<path style="fill:#F0BC5E;" d="M43,35c0-1.375-0.264-2.686-0.725-3.899l-5.852,0.911l-0.229,0.282C36.7,33.075,37,34.001,37,35    c0,0.979-0.292,1.885-0.778,2.656l0.202,0.332l5.852,0.911C42.736,37.686,43,36.375,43,35z"/>
	</g>
	<g>
		<path d="M21.838,21l-3.154,1.051l0.633,1.897L22.162,23h2.909c0.092,0.643,0.276,1.268,0.541,1.86C22.246,26.987,20,30.732,20,35    c0,6.617,5.383,12,12,12s12-5.383,12-12c0-4.268-2.246-8.013-5.612-10.141c0.265-0.592,0.449-1.216,0.541-1.859h2.909l2.846,0.949    l0.633-1.897L42.162,21H39v-2h2.838l2.846,0.949l0.633-1.897L42.162,17H39v-2h2.838l2.846,0.949l0.633-1.897L42.162,13H39v-2h-2    v-1c0-0.965-0.287-1.858-0.763-2.623l2.953-1.969l-1.242-3.725l-1.896,0.633l0.758,2.275L34.848,5.9C34.038,5.336,33.059,5,32,5    s-2.038,0.336-2.848,0.9L27.19,4.592l0.758-2.275l-1.896-0.633L24.81,5.408l2.953,1.969C27.287,8.142,27,9.035,27,10v1h-2v2    h-3.162l-3.154,1.051l0.633,1.897L22.162,15H25v2h-3.162l-3.154,1.051l0.633,1.897L22.162,19H25v2H21.838z M27,22v-7.586l4,4    v4.637c-1.268,0.105-2.482,0.402-3.608,0.872C27.139,23.317,27,22.667,27,22z M35.586,13L32,16.586L28.414,13H35.586z M42,35    c0,5.514-4.486,10-10,10s-10-4.486-10-10s4.486-10,10-10S42,29.486,42,35z M33,23.051v-4.637l4-4V22    c0,0.667-0.139,1.317-0.392,1.923C35.482,23.453,34.268,23.156,33,23.051z M29,10c0-1.654,1.346-3,3-3s3,1.346,3,3v1h-6V10z"/>
		<path d="M26,35c0,3.309,2.691,6,6,6s6-2.691,6-6s-2.691-6-6-6S26,31.691,26,35z M36,35c0,2.206-1.794,4-4,4s-4-1.794-4-4    s1.794-4,4-4S36,32.794,36,35z"/>
		<path d="M58,17H47v2h11c1.654,0,3,1.346,3,3v27H3V22c0-1.654,1.346-3,3-3h11v-2H6c-2.757,0-5,2.243-5,5v30c0,2.757,2.243,5,5,5h13    v4h-4v2h34v-2h-4v-4h13c2.757,0,5-2.243,5-5V22C63,19.243,60.757,17,58,17z M43,61H21v-4h22V61z M58,55H6c-1.654,0-3-1.346-3-3v-1    h58v1C61,53.654,59.654,55,58,55z"/>
		<rect x="46" y="45" width="13" height="2"/>
		<rect x="46" y="41" width="13" height="2"/>
		<rect x="46" y="37" width="13" height="2"/>
		<rect x="46" y="33" width="13" height="2"/>
		<rect x="5" y="45" width="13" height="2"/>
		<rect x="5" y="41" width="13" height="2"/>
		<rect x="5" y="37" width="13" height="2"/>
		<rect x="5" y="33" width="13" height="2"/>
	</g>
</g>
</svg>
