<?xml version="1.0" encoding="iso-8859-1"?>
<!-- Generator: Adobe Illustrator 22.1.0, SVG Export Plug-In . SVG Version: 6.00 Build 0)  -->
<svg xmlns="http://www.w3.org/2000/svg" xmlns:xlink="http://www.w3.org/1999/xlink" version="1.1" id="Layer_1_1_" x="0px" y="0px" viewBox="0 0 64 64" style="enable-background:new 0 0 64 64;" xml:space="preserve" width="512" height="512">
<g>
	<g>
		<rect x="49" y="38" style="fill:#F0BC5E;" width="10" height="8"/>
	</g>
	<g>
		<rect x="5" y="38" style="fill:#F0BC5E;" width="10" height="8"/>
	</g>
	<path d="M58,17h-6.4v2H58c1.654,0,3,1.346,3,3v27H3V22c0-1.654,1.346-3,3-3h6.4v-2H6c-2.757,0-5,2.243-5,5v30c0,2.757,2.243,5,5,5   h13v4h-4v2h34v-2h-4v-4h13c2.757,0,5-2.243,5-5V22C63,19.243,60.757,17,58,17z M43,61H21v-4h22V61z M58,55H6c-1.654,0-3-1.346-3-3   v-1h58v1C61,53.654,59.654,55,58,55z"/>
	<g>
		<g>
			<path style="fill:#F0BC5E;" d="M32,43c-11.579,0-21-9.421-21-21S20.421,1,32,1s21,9.421,21,21S43.579,43,32,43z"/>
		</g>
	</g>
	<g>
		<polygon points="38.625,30.366 37.375,28.804 46.399,21.585 37.375,14.366 38.625,12.804 49.601,21.585   "/>
	</g>
	<g>
		<polygon points="25.375,30.366 14.399,21.585 25.375,12.804 26.625,14.366 17.601,21.585 26.625,28.804   "/>
	</g>
	<g>
		<rect x="21" y="20.585" transform="matrix(0.3218 -0.9468 0.9468 0.3218 1.2659 44.9371)" width="22" height="2"/>
	</g>
	<g>
		<rect x="5" y="45" width="10" height="2"/>
	</g>
	<g>
		<rect x="5" y="41" width="10" height="2"/>
	</g>
	<g>
		<rect x="5" y="37" width="10" height="2"/>
	</g>
	<g>
		<rect x="49" y="45" width="10" height="2"/>
	</g>
	<g>
		<rect x="49" y="41" width="10" height="2"/>
	</g>
	<g>
		<rect x="49" y="37" width="10" height="2"/>
	</g>
</g>
</svg>
