<?xml version="1.0" encoding="iso-8859-1"?>
<!-- Generator: Adobe Illustrator 22.1.0, SVG Export Plug-In . SVG Version: 6.00 Build 0)  -->
<svg xmlns="http://www.w3.org/2000/svg" xmlns:xlink="http://www.w3.org/1999/xlink" version="1.1" id="Layer_1_1_" x="0px" y="0px" viewBox="0 0 64 64" style="enable-background:new 0 0 64 64;" xml:space="preserve" width="512" height="512">
<g>
	<g>
		<path style="fill:#F0BC5E;" d="M55,17h-9.195C45.926,17.854,46,18.72,46,19.601V31l1.897,0.632C50.347,32.449,52,34.742,52,37.325    V50H12V37.325c0-2.583,1.653-4.875,4.103-5.692L18,31V19.601c0-0.881,0.074-1.748,0.195-2.601h-0.174H16H9c-1.103,0-2,0.897-2,2    v35h50V19C57,17.897,56.103,17,55,17z"/>
	</g>
	<g>
		<path d="M61,53V18c0-2.757-2.243-5-5-5H45.847C43.829,7.373,39.286,2.888,33.294,1.044L31,1l-0.294,0.044    C24.714,2.888,20.171,7.373,18.153,13H8c-2.757,0-5,2.243-5,5v35H1v5c0,2.757,2.243,5,5,5h52c2.757,0,5-2.243,5-5v-5H61z M43,41v8    h-6v-8.603c0-1.746,0.93-3.389,2.428-4.288l6.692-4.015l1.461,0.487C49.626,33.263,51,35.169,51,37.324V49h-6v-8H43z M19,41v8h-6    V37.324c0-2.155,1.374-4.062,3.418-4.743l1.461-0.487l6.693,4.015C26.07,37.009,27,38.651,27,40.397V49h-6v-8H19z M25.602,34.395    L19,30.434v-5.984l2.037-1.811C21.398,28.39,25.43,33.305,31,34.782V49h-2v-8.603C29,37.953,27.698,35.653,25.602,34.395z     M32,32.979c-4.151-0.907-7.377-4.04-8.532-7.979h17.065C39.377,28.938,36.151,32.072,32,32.979z M41,21.802    c0,0.404-0.028,0.803-0.07,1.198H23.07C23.028,22.605,23,22.206,23,21.802v-0.908l0.928-0.825C26.154,18.09,29.021,17,32,17    s5.846,1.09,8.072,3.069L41,20.894V21.802z M33,34.782c5.57-1.477,9.602-6.393,9.963-12.144L45,24.449v5.984l-6.602,3.961    C36.302,35.653,35,37.953,35,40.397V49h-2V34.782z M31.152,3h1.695C40.123,5.304,45,11.957,45,19.602v2.171l-3.599-3.199    C38.808,16.27,35.469,15,32,15s-6.808,1.27-9.401,3.574L19,21.773v-2.171C19,11.957,23.877,5.304,31.152,3z M5,18    c0-1.654,1.346-3,3-3h9.546C17.19,16.48,17,18.021,17,19.602v10.678l-1.214,0.404C12.923,31.638,11,34.307,11,37.324V51h42V37.324    c0-3.018-1.923-5.686-4.786-6.641L47,30.279V19.602c0-1.58-0.19-3.121-0.546-4.602H56c1.654,0,3,1.346,3,3v35H5V18z M23,55h18v1    c0,0.552-0.449,1-1,1H24c-0.551,0-1-0.448-1-1V55z M61,58c0,1.654-1.346,3-3,3H6c-1.654,0-3-1.346-3-3v-3h18v1    c0,1.654,1.346,3,3,3h16c1.654,0,3-1.346,3-3v-1h18V58z"/>
		<rect x="7" y="57" width="2" height="2"/>
		<rect x="11" y="57" width="2" height="2"/>
		<rect x="15" y="57" width="2" height="2"/>
	</g>
</g>
</svg>
