<?xml version="1.0" encoding="iso-8859-1"?>
<!-- Generator: Adobe Illustrator 22.1.0, SVG Export Plug-In . SVG Version: 6.00 Build 0)  -->
<svg xmlns="http://www.w3.org/2000/svg" xmlns:xlink="http://www.w3.org/1999/xlink" version="1.1" id="Layer_1_1_" x="0px" y="0px" viewBox="0 0 64 64" style="enable-background:new 0 0 64 64;" xml:space="preserve" width="512" height="512">
<g>
	<g>
		<rect x="10" y="19" style="fill:#F0BC5E;" width="8" height="4"/>
	</g>
	<g>
		<rect x="28" y="9" style="fill:#F0BC5E;" width="8" height="4"/>
	</g>
	<g>
		<rect x="10" y="47" style="fill:#F0BC5E;" width="12" height="2"/>
	</g>
	<g>
		<rect x="10" y="9" style="fill:#F0BC5E;" width="4" height="2"/>
	</g>
	<g>
		<rect x="10" y="29" style="fill:#F0BC5E;" width="4" height="2"/>
	</g>
	<g>
		<rect x="32" y="19" style="fill:#F0BC5E;" width="4" height="2"/>
	</g>
	<g>
		<g>
			<path style="fill:#F0BC5E;" d="M23,45H11c-1.105,0-2-0.895-2-2v-2c0-1.105,0.895-2,2-2h12c1.105,0,2,0.895,2,2v2     C25,44.105,24.105,45,23,45z"/>
		</g>
	</g>
	<g>
		<rect x="9" y="9" width="2" height="2"/>
		<rect x="13" y="9" width="2" height="2"/>
		<rect x="35" y="9" width="2" height="4"/>
		<rect x="31" y="9" width="2" height="4"/>
		<rect x="27" y="9" width="2" height="4"/>
		<rect x="9" y="29" width="2" height="2"/>
		<rect x="13" y="29" width="2" height="2"/>
		<rect x="27" y="29" width="2" height="4"/>
		<rect x="35" y="19" width="2" height="2"/>
		<rect x="31" y="19" width="2" height="2"/>
		<rect x="9" y="19" width="2" height="4"/>
		<rect x="13" y="19" width="2" height="4"/>
		<rect x="17" y="19" width="2" height="4"/>
		<rect x="9" y="47" width="2" height="2"/>
		<rect x="13" y="47" width="2" height="2"/>
		<rect x="17" y="47" width="2" height="2"/>
		<rect x="21" y="47" width="2" height="2"/>
		<path d="M45,27V4c0-1.654-1.346-3-3-3H4C2.346,1,1,2.346,1,4v46c0,1.654,1.346,3,3,3h24.9c2.952,5.917,9.051,10,16.1,10    c9.925,0,18-8.075,18-18S54.925,27,45,27z M60.708,42h-2.259c-1.899,0-3.582,1.14-4.288,2.904l-0.18,0.45    C53.582,46.354,52.627,47,51.551,47h-0.696c-0.404,0-0.81-0.096-1.171-0.276l-1.236-0.618C47.555,45.659,47,44.762,47,43.764    v-0.265c0-0.699,0.272-1.357,0.767-1.852l0.881-0.881C49.52,39.895,50,38.734,50,37.501v-0.265c0-1.76-0.979-3.343-2.553-4.131    C46.555,32.659,46,31.762,46,30.764v-1.714C53.345,29.508,59.36,34.928,60.708,42z M3,50V4c0-0.551,0.448-1,1-1h38    c0.552,0,1,0.449,1,1v23.118c-0.68,0.076-1.345,0.196-2,0.346V5H5v46H4C3.448,51,3,50.552,3,50z M30.044,35H7v-8h32v1.05    C35.322,29.357,32.184,31.81,30.044,35z M39,15H7V7h32V15z M7,17h32v8H7V17z M7,51V37h21.9c-1.204,2.414-1.9,5.124-1.9,8    c0,2.106,0.383,4.12,1.05,6H7z M29,45c0-1.747,0.291-3.425,0.811-5h1.974c0.809,0,1.51,0.575,1.669,1.367l0.131,0.657    C33.931,43.749,35.457,45,37.215,45h1.084C39.237,45,40,45.763,40,46.701v1c0,1.131,0.506,2.185,1.389,2.892l2.973,2.376    c0.406,0.325,0.639,0.81,0.639,1.33C45,56.34,46.66,58,48.701,58h0.853c0.57,0,1.1,0.283,1.416,0.758l0.557,0.836    C49.531,60.49,47.326,61,45,61C36.178,61,29,53.822,29,45z M53.302,58.651l-0.669-1.003C51.946,56.616,50.795,56,49.554,56h-0.853    C47.763,56,47,55.237,47,54.299c0-1.131-0.506-2.185-1.389-2.892l-2.973-2.376C42.232,48.706,42,48.222,42,47.701v-1    C42,44.66,40.34,43,38.299,43h-1.084c-0.809,0-1.51-0.575-1.669-1.367l-0.131-0.657C35.069,39.251,33.543,38,31.785,38h-1.15    c2.464-5.034,7.484-8.583,13.365-8.949v1.714c0,1.76,0.979,3.342,2.553,4.13C47.445,35.341,48,36.238,48,37.236v0.265    c0,0.699-0.272,1.357-0.767,1.852l-0.881,0.881C45.48,41.105,45,42.266,45,43.499v0.265c0,1.76,0.979,3.343,2.553,4.131    l1.236,0.618C49.427,48.831,50.141,49,50.854,49h0.696c1.899,0,3.582-1.14,4.288-2.904l0.18-0.45    C56.418,44.646,57.373,44,58.449,44h2.5C60.97,44.332,61,44.662,61,45C61,50.78,57.909,55.839,53.302,58.651z"/>
	</g>
</g>
</svg>
