<?xml version="1.0" encoding="iso-8859-1"?>
<!-- Generator: Adobe Illustrator 22.1.0, SVG Export Plug-In . SVG Version: 6.00 Build 0)  -->
<svg xmlns="http://www.w3.org/2000/svg" xmlns:xlink="http://www.w3.org/1999/xlink" version="1.1" id="Layer_1_1_" x="0px" y="0px" viewBox="0 0 64 64" style="enable-background:new 0 0 64 64;" xml:space="preserve" width="512" height="512">
<g>
	<g>
		<path style="fill:#F0BC5E;" d="M62,43H2V14c0-2.209,1.791-4,4-4h52c2.209,0,4,1.791,4,4V43z"/>
	</g>
	<g>
		<path d="M58,9H6c-2.757,0-5,2.243-5,5v30c0,2.757,2.243,5,5,5h13v4h-4v2h34v-2h-4v-4h13c2.757,0,5-2.243,5-5V14    C63,11.243,60.757,9,58,9z M43,53H21v-4h22V53z M61,44c0,1.654-1.346,3-3,3H6c-1.654,0-3-1.346-3-3V14c0-1.654,1.346-3,3-3h52    c1.654,0,3,1.346,3,3V44z"/>
		<path d="M23,19c2.206,0,4,1.794,4,4h2c0-3.309-2.691-6-6-6s-6,2.691-6,6v6c0,3.309,2.691,6,6,6s6-2.691,6-6h-2    c0,2.206-1.794,4-4,4s-4-1.794-4-4v-6C19,20.794,20.794,19,23,19z"/>
		<path d="M44.992,18.124l-1.984-0.248L42.492,22h-4.985l0.484-3.876l-1.984-0.248L35.492,22H33v2h2.242l-0.5,4H33v2h1.492    l-0.484,3.876l1.984,0.248L36.508,30h4.985l-0.484,3.876l1.984,0.248L43.508,30H46v-2h-2.242l0.5-4H46v-2h-1.492L44.992,18.124z     M41.742,28h-4.985l0.5-4h4.985L41.742,28z"/>
	</g>
</g>
</svg>
