<?xml version="1.0" encoding="iso-8859-1"?>
<!-- Generator: Adobe Illustrator 22.1.0, SVG Export Plug-In . SVG Version: 6.00 Build 0)  -->
<svg xmlns="http://www.w3.org/2000/svg" xmlns:xlink="http://www.w3.org/1999/xlink" version="1.1" id="Layer_1_1_" x="0px" y="0px" viewBox="0 0 64 64" style="enable-background:new 0 0 64 64;" xml:space="preserve" width="512" height="512">
<g>
	<g>
		<path style="fill:#F0BC5E;" d="M32,26h-0.201c-0.577,2.844-2.366,5.242-4.799,6.651V36l4.926,1.642l0,0.013    c0.213-0.377,0.434-0.75,0.678-1.107l-1.08-2.148l2.828-2.828l2.148,1.08c0.855-0.587,1.775-1.084,2.746-1.484l0.011-0.601    C37.802,28.806,37,26.576,37,24.292V22v-6c0-8.271-6.729-15-15-15S7,7.729,7,16v6v3.169c0,3.247-1.729,6.303-4.515,7.974    l-0.95,0.57L2.2,34.6c0.112,0.149,2.368,3.073,6.8,4.067L17,36v-3.349c-2.433-1.409-4.222-3.807-4.799-6.651H12    c-2.209,0-4-1.791-4-4c0-2.209,1.791-4,4-4v-2h20v2c2.209,0,4,1.791,4,4C36,24.209,34.209,26,32,26z"/>
	</g>
	<g>
		<path style="fill:#F0BC5E;" d="M44.976,57.024c-6.617,0-12-5.383-12-12s5.383-12,12-12s12,5.383,12,12    S51.593,57.024,44.976,57.024z"/>
	</g>
	<g>
		<circle cx="17" cy="20" r="1"/>
		<circle cx="27" cy="20" r="1"/>
		<path d="M26,26h-2c0,1.103-0.897,2-2,2s-2-0.897-2-2h-2c0,2.206,1.794,4,4,4S26,28.206,26,26z"/>
		<polygon points="41.269,40.317 36.562,45.024 41.269,49.731 42.683,48.317 39.39,45.024 42.683,41.731   "/>
		<polygon points="47.269,41.731 50.562,45.024 47.269,48.317 48.683,49.731 53.39,45.024 48.683,40.317   "/>
		<rect x="38.893" y="44.025" transform="matrix(0.1641 -0.9864 0.9864 0.1641 -6.8183 82.0027)" width="12.166" height="2"/>
		<path d="M60.575,41.5c-0.401-1.792-1.097-3.476-2.074-5.02l1.145-2.276l-3.85-3.85l-2.276,1.145    c-1.544-0.978-3.228-1.673-5.02-2.074L47.698,27h-5.445l-0.801,2.425c-1.792,0.401-3.476,1.097-5.02,2.074l-2.276-1.145    l-3.85,3.85l1.114,2.215L28,35.279v-2.072c2.21-1.445,3.864-3.663,4.589-6.267C35.066,26.645,37,24.555,37,22    c0-2.414-1.721-4.434-4-4.899V15H11v2.101C8.721,17.566,7,19.586,7,22c0,2.555,1.934,4.645,4.411,4.94    c0.724,2.605,2.379,4.822,4.589,6.267v2.072L5.786,38.685C2.924,39.638,1,42.307,1,45.324V55h29.731l-0.424,0.844l3.85,3.85    l2.276-1.145c1.544,0.978,3.228,1.673,5.02,2.074l0.801,2.425h5.445l0.802-2.425c1.792-0.401,3.476-1.097,5.02-2.074l2.276,1.145    l3.85-3.85l-1.145-2.276c0.978-1.544,1.673-3.228,2.074-5.02L63,47.747v-5.445L60.575,41.5z M30.511,38.224    c-0.491,1.045-0.879,2.136-1.134,3.276l-2.425,0.802v1.552l-3.474-2.918l3.792-3.792L30.511,38.224z M35,22    c0,1.317-0.859,2.427-2.042,2.829C32.979,24.554,33,24.28,33,24v-4.816C34.161,19.598,35,20.698,35,22z M9,22    c0-1.302,0.839-2.402,2-2.816V24c0,0.28,0.021,0.554,0.042,0.829C9.859,24.427,9,23.317,9,22z M13,24v-7h18v7c0,4.963-4.037,9-9,9    S13,28.963,13,24z M22,35c1.412,0,2.758-0.277,4-0.764v1.35l-4,4l-4-4v-1.35C19.242,34.723,20.588,35,22,35z M16.73,37.144    L20.586,41l-0.064,0.064l-3.34,3.34l-3.833-6.133L16.73,37.144z M3,45.324c0-2.155,1.374-4.062,3.419-4.743l4.978-1.659    l5.421,8.674l5.24-5.24l4.894,4.111v1.281l2.425,0.801c0.353,1.577,0.948,3.064,1.748,4.452h-20.7C9.509,52.056,9,50.818,9,49.5    c0-1.345,0.523-2.609,1.475-3.561L11,45.414V43H9v1.587c-1.29,1.321-2,3.062-2,4.913c0,1.249,0.33,2.446,0.937,3.5H3V45.324z     M61,46.302l-2.163,0.715l-0.108,0.581c-0.358,1.932-1.101,3.727-2.205,5.337l-0.335,0.487l1.021,2.029l-1.807,1.807l-2.029-1.021    l-0.487,0.335c-1.61,1.104-3.405,1.847-5.337,2.205l-0.581,0.108l-0.716,2.163h-2.555l-0.715-2.163l-0.581-0.108    c-1.932-0.358-3.727-1.101-5.337-2.205l-0.487-0.335l-2.029,1.021l-1.807-1.807l1.021-2.029l-0.335-0.487    c-1.104-1.61-1.847-3.405-2.205-5.337l-0.108-0.581l-2.163-0.715v-2.555l2.163-0.716l0.108-0.581    c0.358-1.932,1.101-3.727,2.205-5.337l0.335-0.487l-1.021-2.029l1.807-1.807l2.029,1.021l0.487-0.335    c1.61-1.104,3.405-1.847,5.337-2.205l0.581-0.108L43.698,29h2.555l0.716,2.163l0.581,0.108c1.932,0.358,3.727,1.101,5.337,2.205    l0.487,0.335l2.029-1.021l1.807,1.807l-1.021,2.029l0.335,0.487c1.104,1.61,1.847,3.405,2.205,5.337l0.108,0.581L61,43.747V46.302    z"/>
	</g>
</g>
</svg>
