<?xml version="1.0" encoding="iso-8859-1"?>
<!-- Generator: Adobe Illustrator 22.1.0, SVG Export Plug-In . SVG Version: 6.00 Build 0)  -->
<svg xmlns="http://www.w3.org/2000/svg" xmlns:xlink="http://www.w3.org/1999/xlink" version="1.1" id="Layer_1_1_" x="0px" y="0px" viewBox="0 0 64 64" style="enable-background:new 0 0 64 64;" xml:space="preserve" width="512" height="512">
<g>
	<g>
		<path d="M18,41c-7.168,0-13-5.832-13-13s5.832-13,13-13c4.615,0,8.924,2.49,11.247,6.499l-1.73,1.002    C25.55,19.108,21.904,17,18,17c-6.065,0-11,4.935-11,11s4.935,11,11,11c3.904,0,7.55-2.108,9.516-5.501l1.73,1.002    C26.924,38.51,22.615,41,18,41z"/>
	</g>
	<path d="M18,43C9.729,43,3,36.271,3,28s6.729-15,15-15c6.136,0,11.592,3.68,13.899,9.376l1.854-0.752C31.138,15.17,24.955,11,18,11   C8.626,11,1,18.626,1,28c0,7.634,5.059,14.107,12,16.247V47h-2v2h2v9c0,2.757,2.243,5,5,5s5-2.243,5-5v-9h2v-2h-2v-2.745   c4.808-1.47,8.788-5.029,10.753-9.879l-1.854-0.752C29.592,39.32,24.136,43,18,43z M21,58c0,1.654-1.346,3-3,3s-3-1.346-3-3v-9h6   V58z M21,47h-6v-2.281C15.976,44.893,16.975,45,18,45c1.021,0,2.021-0.1,3-0.274V47z"/>
	<g>
		<path style="fill:#F0BC5E;" d="M53.286,21c-0.485,0-0.942,0.189-1.316,0.497C50.072,23.057,47.649,24,45,24    s-5.072-0.943-6.97-2.503C37.656,21.189,37.199,21,36.714,21H15c-1.105,0-2,0.895-2,2v10c0,1.105,0.895,2,2,2h46    c1.105,0,2-0.895,2-2V23c0-1.105-0.895-2-2-2H53.286z"/>
	</g>
	<path d="M51.619,23C54.858,20.849,57,17.172,57,13c0-6.617-5.383-12-12-12S33,6.383,33,13s5.383,12,12,12   c0.683,0,1.348-0.071,2-0.181V35h2V24.3c0.699-0.248,1.367-0.556,2-0.924V33h10V23H51.619z M46.237,22.915l0.392-1.962   c0.191-0.955,0.657-1.824,1.346-2.513c0.928-0.929,2.163-1.44,3.477-1.44h2.708C52.771,20.165,49.791,22.474,46.237,22.915z    M54.798,15h-3.347c-1.849,0-3.586,0.72-4.891,2.026c-0.969,0.969-1.623,2.19-1.892,3.534l-0.479,2.398   c-0.718-0.058-1.415-0.187-2.083-0.39l0.569-2.848c0.257-1.284-0.142-2.604-1.068-3.528l-1.049-1.049   C40.198,14.784,40,14.306,40,13.796v-0.592c0-0.51,0.198-0.988,0.557-1.348l0.299-0.298C41.594,10.821,42,9.84,42,8.796   c0-1.488-0.827-2.826-2.159-3.494L39.11,4.937c1.14-0.835,2.456-1.443,3.89-1.735v2.044c0,1.492,1.011,2.788,2.46,3.15l0.595,0.147   C46.612,8.684,47,9.181,47,9.754C47,11.544,48.456,13,50.246,13H55C55,13.685,54.93,14.354,54.798,15z M54.798,11h-4.552   C49.559,11,49,10.441,49,9.754c0-1.492-1.011-2.788-2.46-3.15l-0.595-0.147C45.388,6.316,45,5.819,45,5.246V3   C49.829,3,53.869,6.441,54.798,11z M35,13c0-2.539,0.959-4.854,2.525-6.62l1.421,0.71C39.596,7.416,40,8.069,40,8.796   c0,0.51-0.198,0.988-0.557,1.348l-0.299,0.298C38.406,11.179,38,12.16,38,13.204v0.592c0,1.044,0.406,2.025,1.144,2.763   l1.049,1.049c0.452,0.451,0.646,1.095,0.521,1.722l-0.491,2.454C37.114,20.085,35,16.785,35,13z M59,31h-6v-6h6V31z"/>
</g>
</svg>
