<?xml version="1.0" encoding="iso-8859-1"?>
<!-- Generator: Adobe Illustrator 22.1.0, SVG Export Plug-In . SVG Version: 6.00 Build 0)  -->
<svg xmlns="http://www.w3.org/2000/svg" xmlns:xlink="http://www.w3.org/1999/xlink" version="1.1" id="Layer_1_1_" x="0px" y="0px" viewBox="0 0 64 64" style="enable-background:new 0 0 64 64;" xml:space="preserve" width="512" height="512">
<g>
	<g>
		<rect x="50" y="29" style="fill:#F0BC5E;" width="4" height="2"/>
	</g>
	<g>
		<rect x="32" y="19" style="fill:#F0BC5E;" width="4" height="2"/>
	</g>
	<g>
		<rect x="6" y="33" style="fill:#F0BC5E;" width="4" height="2"/>
	</g>
	<g>
		<rect x="6" y="57" style="fill:#F0BC5E;" width="4" height="2"/>
	</g>
	<g>
		<rect x="20" y="45" style="fill:#F0BC5E;" width="4" height="2"/>
	</g>
	<g>
		<rect x="50" y="9" style="fill:#F0BC5E;" width="4" height="2"/>
	</g>
	<g>
		<rect x="31" y="39" style="fill:#F0BC5E;" width="6" height="6"/>
	</g>
	<g>
		<rect x="32" y="9" style="fill:#F0BC5E;" width="8" height="4"/>
	</g>
	<g>
		<rect x="46" y="19" style="fill:#F0BC5E;" width="8" height="4"/>
	</g>
	<g>
		<rect x="32" y="29" style="fill:#F0BC5E;" width="8" height="4"/>
	</g>
	<g>
		<path style="fill:#F0BC5E;" d="M23.544,24.461l1.158-2.315l-3.848-3.848l-2.315,1.158L17.721,17h-5.441l-0.818,2.456l-2.315-1.158    l-3.848,3.848l1.158,2.315L4,25.279V30h7.555C11.211,29.41,11,28.732,11,28c0-2.209,1.791-4,4-4s4,1.791,4,4    c0,0.732-0.211,1.41-0.555,2H26v-4.721L23.544,24.461z"/>
	</g>
	<g>
		<path d="M60,1H26c-1.654,0-3,1.346-3,3v14h2V4c0-0.552,0.448-1,1-1h34c0.552,0,1,0.448,1,1v42c0,0.552-0.448,1-1,1h-1V5H27v24.184    C26.686,29.072,26.352,29,26,29h-6.112C19.955,28.671,20,28.338,20,28c0-2.757-2.243-5-5-5s-5,2.243-5,5    c0,0.338,0.045,0.671,0.112,1H4c-1.654,0-3,1.346-3,3v4c0,1.654,1.346,3,3,3h1v2H4c-1.654,0-3,1.346-3,3v4c0,1.654,1.346,3,3,3h1    v2H4c-1.654,0-3,1.346-3,3v4c0,1.654,1.346,3,3,3h22c1.654,0,3-1.346,3-3v-4c0-1.654-1.346-3-3-3h-1v-2h1    c1.302,0,2.402-0.839,2.816-2H60c1.654,0,3-1.346,3-3V4C63,2.346,61.654,1,60,1z M26,41h-1v-2h1c1.302,0,2.402-0.839,2.816-2H57    v10H29v-3C29,42.346,27.654,41,26,41z M29,32v-5h28v8H29v-1V32z M57,25H29v-8h28V25z M57,7v8H29V7H57z M12,28c0-1.654,1.346-3,3-3    s3,1.346,3,3c0,0.345-0.08,0.678-0.194,1h-5.612C12.08,28.678,12,28.345,12,28z M3,36v-4c0-0.552,0.448-1,1-1h22    c0.552,0,1,0.448,1,1v2v2c0,0.552-0.448,1-1,1H4C3.448,37,3,36.552,3,36z M7,39h16v2H7V39z M27,56v4c0,0.552-0.448,1-1,1H4    c-0.552,0-1-0.448-1-1v-4c0-0.552,0.448-1,1-1h22C26.552,55,27,55.448,27,56z M23,53H7v-2h16V53z M27,48c0,0.552-0.448,1-1,1H4    c-0.552,0-1-0.448-1-1v-4c0-0.552,0.448-1,1-1h22c0.552,0,1,0.448,1,1V48z"/>
		<rect x="53" y="9" width="2" height="2"/>
		<rect x="49" y="9" width="2" height="2"/>
		<rect x="31" y="9" width="2" height="4"/>
		<rect x="35" y="9" width="2" height="4"/>
		<rect x="39" y="9" width="2" height="4"/>
		<rect x="53" y="29" width="2" height="2"/>
		<rect x="49" y="29" width="2" height="2"/>
		<rect x="39" y="29" width="2" height="4"/>
		<rect x="31" y="19" width="2" height="2"/>
		<rect x="35" y="19" width="2" height="2"/>
		<rect x="53" y="19" width="2" height="4"/>
		<rect x="49" y="19" width="2" height="4"/>
		<rect x="45" y="19" width="2" height="4"/>
		<path d="M55,39H39v6h16V39z M53,43H41v-2h12V43z"/>
		<rect x="5" y="33" width="2" height="2"/>
		<rect x="9" y="33" width="2" height="2"/>
		<rect x="23" y="45" width="2" height="2"/>
		<rect x="19" y="45" width="2" height="2"/>
		<rect x="5" y="57" width="2" height="2"/>
		<rect x="9" y="57" width="2" height="2"/>
		<rect x="35" y="29" width="2" height="4"/>
		<rect x="31" y="29" width="2" height="4"/>
		<rect x="35" y="43" width="2" height="2"/>
		<rect x="31" y="43" width="2" height="2"/>
		<rect x="35" y="39" width="2" height="2"/>
		<rect x="31" y="39" width="2" height="2"/>
	</g>
</g>
</svg>
