<?xml version="1.0" encoding="iso-8859-1"?>
<!-- Generator: Adobe Illustrator 22.1.0, SVG Export Plug-In . SVG Version: 6.00 Build 0)  -->
<svg xmlns="http://www.w3.org/2000/svg" xmlns:xlink="http://www.w3.org/1999/xlink" version="1.1" id="Layer_1_1_" x="0px" y="0px" viewBox="0 0 64 64" style="enable-background:new 0 0 64 64;" xml:space="preserve" width="512" height="512">
<g>
	<path d="M18,5C10.832,5,5,10.832,5,18s5.832,13,13,13v-2c-2.673,0-5.125-0.961-7.034-2.552l4.281-4.281   C16.038,22.691,16.983,23,18,23v-2c-1.654,0-3-1.346-3-3s1.346-3,3-3c1.108,0,2.123,0.607,2.646,1.586l1.764-0.945   C21.537,14.012,19.848,13,18,13c-1.017,0-1.962,0.309-2.753,0.833l-4.281-4.281C12.875,7.961,15.327,7,18,7   c4.02,0,7.719,2.192,9.653,5.721l1.754-0.961C27.121,7.59,22.75,5,18,5z M9.552,10.966l4.281,4.281C13.309,16.038,13,16.983,13,18   s0.309,1.962,0.833,2.753l-4.281,4.281C7.961,23.125,7,20.673,7,18S7.961,12.875,9.552,10.966z"/>
	<g>
		<polygon style="fill:#F0BC5E;" points="49,30 59,30 59,5 39,5 39,10 45,10 45,14 49,14   "/>
	</g>
	<g>
		<path style="fill:#F0BC5E;" d="M42.627,17.139C40.012,13.292,35.686,11,31.027,11C23.293,11,17,17.293,17,25.027V34h1    c0-2.209,1.791-4,4-4l0.097-0.019C25.325,29.335,28.367,27.975,31,26c0.63,1.259,0.63,2.741,0,4l2.05-0.293    C36.298,29.243,39.376,27.968,42,26v4c2.209,0,4,1.791,4,4h1V23.123C47,20.37,45.221,17.964,42.627,17.139z"/>
	</g>
	<g>
		<rect x="57" y="5" width="2" height="2"/>
	</g>
	<g>
		<rect x="33" y="5" width="22" height="2"/>
	</g>
	<g>
		<rect x="39" y="9" width="20" height="2"/>
	</g>
	<g>
		<rect x="45" y="13" width="14" height="2"/>
	</g>
	<g>
		<rect x="49" y="17" width="10" height="2"/>
	</g>
	<g>
		<rect x="49" y="21" width="10" height="2"/>
	</g>
	<g>
		<rect x="49" y="25" width="10" height="2"/>
	</g>
	<g>
		<rect x="49" y="29" width="10" height="2"/>
	</g>
	<g>
		<path d="M42.589,38.94c2.145-0.256,3.884-1.852,4.31-3.94H63V1H1v34h16.101c0.426,2.089,2.165,3.685,4.31,3.94    c0.724,2.605,2.379,4.822,4.589,6.267v2.072l-10.214,3.405C12.924,51.638,11,54.307,11,57.324V63h42v-5.676    c0-3.018-1.924-5.687-4.786-6.64L38,47.279v-2.072C40.21,43.762,41.864,41.545,42.589,38.94z M42.958,36.829    C42.979,36.554,43,36.28,43,36v-4.816c1.161,0.414,2,1.514,2,2.816C45,35.317,44.141,36.427,42.958,36.829z M17.101,33H3V3h58v30    H46.899C46.5,31.044,44.956,29.5,43,29.101V24l-1.6,1.2c-2.483,1.862-5.42,3.078-8.492,3.517l-0.495,0.071    c0.157-1.095-0.016-2.229-0.519-3.235l-0.536-1.071L30.4,25.2c-2.198,1.647-4.736,2.863-7.4,3.549V26h-2v3.101    C19.044,29.5,17.5,31.044,17.101,33z M19,34c0-1.302,0.839-2.402,2-2.816V36c0,0.28,0.021,0.554,0.042,0.829    C19.859,36.427,19,35.317,19,34z M23,36v-5.192c2.641-0.616,5.182-1.709,7.448-3.199c0.074,0.661-0.04,1.339-0.343,1.944    l-0.854,1.707l3.94-0.562c2.765-0.396,5.431-1.358,7.809-2.812V36c0,4.963-4.037,9-9,9S23,40.963,23,36z M26.73,49.144L30.586,53    l-3.404,3.404l-3.833-6.133L26.73,49.144z M13,57.324c0-2.155,1.374-4.062,3.419-4.743l4.978-1.659l5.421,8.674L31,55.414V61H21    v-4h-2v4h-6V57.324z M51,57.324V61h-6v-4h-2v4H33v-5.586l4.182,4.182l5.421-8.674l4.978,1.659C49.626,53.263,51,55.169,51,57.324z     M40.651,50.271l-3.833,6.133L33.414,53l3.856-3.856L40.651,50.271z M36,47.586l-4,4l-4-4v-1.35C29.242,46.723,30.588,47,32,47    s2.758-0.277,4-0.764V47.586z"/>
		<circle cx="37" cy="33" r="1"/>
		<circle cx="27" cy="33" r="1"/>
		<path d="M36,38h-2c0,1.103-0.897,2-2,2s-2-0.897-2-2h-2c0,2.206,1.794,4,4,4S36,40.206,36,38z"/>
	</g>
</g>
</svg>
