<?xml version="1.0" encoding="iso-8859-1"?>
<!-- Generator: Adobe Illustrator 22.1.0, SVG Export Plug-In . SVG Version: 6.00 Build 0)  -->
<svg xmlns="http://www.w3.org/2000/svg" xmlns:xlink="http://www.w3.org/1999/xlink" version="1.1" id="Layer_1_1_" x="0px" y="0px" viewBox="0 0 64 64" style="enable-background:new 0 0 64 64;" xml:space="preserve" width="512" height="512">
<g>
	<g>
		<path d="M40,20.007V6c0-2.757-2.243-5-5-5H9C6.243,1,4,3.243,4,6v52c0,2.757,2.243,5,5,5h26c2.757,0,5-2.243,5-5V43.993h-2V53H6V9    h32v11.007H40z M38,55v3c0,1.654-1.346,3-3,3H9c-1.654,0-3-1.346-3-3v-3H38z M6,7V6c0-1.654,1.346-3,3-3h26c1.654,0,3,1.346,3,3v1    H6z"/>
		<rect x="19" y="57" width="6" height="2"/>
	</g>
	<polygon points="36,20.075 36,11 8,11 8,51 36,51 36,43.925 34,43.925 34,49 10,49 10,13 34,13 34,20.075  "/>
	<g>
		<rect x="12" y="29" style="fill:#F0BC5E;" width="14" height="6"/>
	</g>
	<g>
		<path style="fill:#F0BC5E;" d="M57.541,28.459c-0.322-1.234-0.813-2.416-1.466-3.525l1.162-2.323l-3.848-3.848l-2.323,1.162    c-1.109-0.652-2.291-1.144-3.525-1.466L46.721,16h-5.441l-0.82,2.459c-1.234,0.322-2.416,0.813-3.525,1.466l-2.323-1.162    l-3.848,3.848l1.162,2.323c-0.652,1.109-1.144,2.291-1.466,3.525L28,29.279v5.441l2.459,0.82c0.322,1.234,0.813,2.416,1.466,3.525    l-1.162,2.323l3.848,3.848l2.323-1.162c1.109,0.652,2.291,1.144,3.525,1.466L41.279,48h5.441l0.82-2.459    c1.234-0.322,2.416-0.813,3.525-1.466l2.323,1.162l3.848-3.848l-1.162-2.323c0.652-1.109,1.144-2.291,1.466-3.525L60,34.721    v-5.441L57.541,28.459z M44,35c-1.657,0-3-1.343-3-3s1.343-3,3-3s3,1.343,3,3S45.657,35,44,35z"/>
	</g>
	<g>
		<path d="M44,42c-5.514,0-10-4.486-10-10s4.486-10,10-10s10,4.486,10,10S49.514,42,44,42z M44,24c-4.411,0-8,3.589-8,8s3.589,8,8,8    s8-3.589,8-8S48.411,24,44,24z"/>
	</g>
	<g>
		<path d="M44,36c-2.206,0-4-1.794-4-4s1.794-4,4-4s4,1.794,4,4S46.206,36,44,36z M44,30c-1.103,0-2,0.897-2,2s0.897,2,2,2    s2-0.897,2-2S45.103,30,44,30z"/>
	</g>
	<g>
		<polygon points="26.414,29 12,29 12,27 21.586,27 19.293,24.707 20.707,23.293   "/>
	</g>
	<g>
		<polygon points="20.707,40.707 19.293,39.293 21.586,37 12,37 12,35 26.414,35   "/>
	</g>
	<g>
		<rect x="24" y="31" width="2" height="2"/>
	</g>
	<g>
		<rect x="20" y="31" width="2" height="2"/>
	</g>
	<g>
		<rect x="16" y="31" width="2" height="2"/>
	</g>
</g>
</svg>
