<?xml version="1.0" encoding="iso-8859-1"?>
<!-- Generator: Adobe Illustrator 22.1.0, SVG Export Plug-In . SVG Version: 6.00 Build 0)  -->
<svg xmlns="http://www.w3.org/2000/svg" xmlns:xlink="http://www.w3.org/1999/xlink" version="1.1" id="Layer_1_1_" x="0px" y="0px" viewBox="0 0 64 64" style="enable-background:new 0 0 64 64;" xml:space="preserve" width="512" height="512">
<g>
	<g>
		<rect x="45" y="16" style="fill:#F0BC5E;" width="14" height="30"/>
	</g>
	<g>
		<rect x="11" y="14" style="fill:#F0BC5E;" width="28" height="20"/>
	</g>
	<g>
		<g>
			<path style="fill:#F0BC5E;" d="M39,63H1V39h38V63z"/>
		</g>
	</g>
	<g>
		<path d="M7,1v38h2V11h32v40h-2v2h24V1H7z M9,3h52v6H9V3z M43,51V11h18v40H43z"/>
		<rect x="11" y="5" width="2" height="2"/>
		<rect x="15" y="5" width="2" height="2"/>
		<rect x="19" y="5" width="2" height="2"/>
		<polygon points="24.241,44.65 29.683,51 24.241,57.35 25.759,58.65 32.317,51 25.759,43.35   "/>
		<polygon points="14.241,43.35 7.683,51 14.241,58.65 15.759,57.35 10.317,51 15.759,44.65   "/>
		<rect x="11.754" y="50" transform="matrix(0.2423 -0.9702 0.9702 0.2423 -34.3263 58.0464)" width="16.492" height="1.999"/>
		<rect x="45" y="15" width="14" height="2"/>
		<rect x="45" y="21" width="14" height="2"/>
		<rect x="45" y="27" width="14" height="2"/>
		<rect x="45" y="33" width="14" height="2"/>
		<rect x="45" y="39" width="14" height="2"/>
		<rect x="45" y="45" width="14" height="2"/>
		<rect x="11" y="13" width="28" height="2"/>
		<rect x="11" y="17" width="28" height="2"/>
		<rect x="11" y="21" width="13" height="2"/>
		<rect x="26" y="21" width="13" height="2"/>
		<rect x="11" y="25" width="28" height="2"/>
		<rect x="11" y="29" width="28" height="2"/>
		<rect x="11" y="33" width="28" height="2"/>
	</g>
</g>
</svg>
